<svg width="40" height="30" viewBox="0 0 40 30" fill="none" xmlns="http://www.w3.org/2000/svg">
<rect width="40" height="30" rx="5" fill="black" style="fill:black;fill-opacity:1;"/>
<path d="M16.25 21.25C19.7017 21.25 22.5 18.4518 22.5 15C22.5 11.5482 19.7017 8.75 16.25 8.75C12.7982 8.75 10 11.5482 10 15C10 18.4518 12.7982 21.25 16.25 21.25Z" fill="#E7001A" style="fill:#E7001A;fill:color(display-p3 0.9059 0.0000 0.1020);fill-opacity:1;"/>
<path d="M23.75 21.25C27.2017 21.25 30 18.4518 30 15C30 11.5482 27.2017 8.75 23.75 8.75C20.2982 8.75 17.5 11.5482 17.5 15C17.5 18.4518 20.2982 21.25 23.75 21.25Z" fill="#F49B1C" style="fill:#F49B1C;fill:color(display-p3 0.9569 0.6078 0.1098);fill-opacity:1;"/>
<path opacity="0.3" fill-rule="evenodd" clip-rule="evenodd" d="M20 9.99954C21.518 11.1398 22.5 12.9552 22.5 15C22.5 17.0448 21.518 18.8602 20 20.0004C18.4819 18.8602 17.5 17.0448 17.5 15C17.5 12.9552 18.4819 11.1398 20 9.99954Z" fill="#E7001A" style="fill:#E7001A;fill:color(display-p3 0.9059 0.0000 0.1020);fill-opacity:1;"/>
</svg>
